<?xml version="1.0" encoding="UTF-8" standalone="no"?>
<!DOCTYPE svg PUBLIC "-//W3C//DTD SVG 1.1//EN" "http://www.w3.org/Graphics/SVG/1.1/DTD/svg11.dtd">
<svg xmlns="http://www.w3.org/2000/svg" version="1.1" viewBox="0 0 132 315">
<path fill="#005bba" d="
  M 5.31 0.00
  L 7.56 0.00
  Q 13.02 1.67 18.13 4.24
  C 22.12 6.25 26.44 4.53 30.40 5.79
  Q 36.62 7.78 42.02 13.26
  C 51.00 22.38 60.66 30.06 63.88 43.12
  C 65.80 50.91 70.22 59.38 71.68 65.06
  Q 77.40 87.40 81.20 110.12
  C 84.09 127.38 84.46 142.52 84.01 160.50
  Q 83.15 194.12 78.74 221.99
  C 77.32 231.00 78.63 240.31 75.37 248.91
  Q 75.18 249.43 75.40 249.94
  L 75.97 251.22
  A 1.06 1.06 0.0 0 0 77.76 251.46
  C 82.20 246.01 85.61 240.99 89.11 234.47
  C 100.22 213.79 110.40 192.95 125.07 174.54
  Q 126.18 173.14 128.72 173.16
  Q 129.21 173.17 129.58 173.50
  Q 131.16 174.93 132.00 177.06
  L 132.00 178.06
  C 125.47 185.70 128.47 194.60 123.94 202.97
  Q 113.73 221.79 96.69 250.94
  Q 95.12 253.62 90.83 257.93
  Q 90.46 258.30 90.37 258.80
  Q 89.01 265.93 86.22 269.71
  Q 75.26 284.59 64.43 299.53
  C 58.53 307.67 53.68 312.29 44.69 315.00
  L 42.94 315.00
  Q 40.52 313.48 39.46 309.55
  Q 29.12 271.27 25.63 235.46
  C 24.35 222.36 21.96 206.28 21.80 191.38
  C 21.73 183.72 20.80 177.87 18.69 171.18
  Q 17.77 168.27 17.82 165.57
  C 17.90 160.62 16.69 153.98 21.96 151.25
  Q 22.52 150.95 22.64 151.58
  Q 27.47 177.49 33.09 203.23
  C 37.26 222.30 39.90 241.73 43.46 260.93
  C 45.29 270.81 45.61 278.99 45.15 288.49
  A 2.60 2.59 -84.1 0 0 47.32 291.18
  C 49.77 291.59 50.87 290.12 52.48 288.62
  Q 62.52 279.27 63.92 265.43
  C 64.71 257.66 64.28 247.51 68.15 238.22
  C 70.78 231.92 65.84 223.84 61.68 219.38
  C 60.13 217.71 59.85 216.26 61.26 214.44
  Q 61.58 214.02 62.11 214.00
  C 67.93 213.68 66.23 223.05 71.41 220.51
  A 0.93 0.90 -5.9 0 0 71.87 219.96
  Q 74.52 211.03 74.94 201.75
  Q 75.75 183.38 74.87 131.25
  C 74.73 122.61 72.44 113.88 71.46 105.25
  C 68.93 83.08 64.83 61.96 54.74 41.83
  C 46.28 24.96 30.02 17.90 14.65 10.28
  Q 12.26 9.10 10.11 9.35
  C 7.15 9.70 0.22 14.24 0.00 8.44
  L 0.00 5.94
  Q 0.99 1.46 5.31 0.00
  Z
  M 100.83 232.84
  Q 99.59 232.67 99.96 233.89
  Q 100.14 234.44 100.55 234.03
  L 101.06 233.51
  Q 101.63 232.94 100.83 232.84
  Z
  M 97.83 235.96
  C 87.99 245.90 82.13 257.54 75.59 269.66
  C 74.76 271.19 75.41 272.94 77.69 272.18
  A 1.76 1.69 -77.0 0 0 78.43 271.70
  C 82.33 267.37 88.97 261.53 90.88 256.38
  Q 94.60 246.30 98.40 236.33
  A 0.35 0.35 0.0 0 0 97.83 235.96
  Z
  M 35.7989 246.0418
  A 0.92 0.92 0.0 0 0 34.8805 245.1202
  L 34.6805 245.1198
  A 0.92 0.92 0.0 0 0 33.7589 246.0382
  L 33.7411 256.2582
  A 0.92 0.92 0.0 0 0 34.6595 257.1798
  L 34.8595 257.1802
  A 0.92 0.92 0.0 0 0 35.7811 256.2618
  L 35.7989 246.0418
  Z
  M 45.80 303.02
  A 0.63 0.63 0.0 0 0 45.83 303.97
  L 48.34 306.02
  A 0.63 0.63 0.0 0 0 49.24 305.91
  L 51.07 303.51
  A 0.63 0.63 0.0 0 0 50.88 302.58
  L 48.48 301.19
  A 0.63 0.63 0.0 0 0 47.74 301.27
  L 45.80 303.02
  Z"
/>
</svg>
