<svg width="24" height="24" viewBox="0 0 24 24" fill="none" xmlns="http://www.w3.org/2000/svg">
<path d="M20.5714 12.4286C19.4405 10.6726 18.0231 9.35938 16.3192 8.48884C16.7731 9.26265 17 10.0997 17 11C17 12.3765 16.5089 13.5558 15.5268 14.5379C14.5521 15.5126 13.3765 16 12 16C10.6235 16 9.4442 15.5126 8.46205 14.5379C7.48735 13.5558 7 12.3765 7 11C7 10.0997 7.22693 9.26265 7.6808 8.48884C5.97693 9.35938 4.55952 10.6726 3.42857 12.4286C4.41815 13.9539 5.65699 15.1704 7.14509 16.0781C8.64063 16.9784 10.2589 17.4286 12 17.4286C13.7411 17.4286 15.3557 16.9784 16.8438 16.0781C18.3393 15.1704 19.5818 13.9539 20.5714 12.4286ZM12.3795 8.52232C12.4836 8.41816 12.5357 8.29167 12.5357 8.14286C12.5357 7.99405 12.4836 7.86756 12.3795 7.76339C12.2753 7.65923 12.1488 7.60714 12 7.60714C11.0699 7.60714 10.2701 7.94196 9.60045 8.61161C8.93824 9.27381 8.60714 10.0699 8.60714 11C8.60714 11.1488 8.65923 11.2753 8.76339 11.3795C8.86756 11.4836 8.99405 11.5357 9.14286 11.5357C9.29167 11.5357 9.41816 11.4836 9.52232 11.3795C9.62649 11.2753 9.67857 11.1488 9.67857 11C9.67857 10.3601 9.90551 9.81324 10.3594 9.35938C10.8132 8.90551 11.3601 8.67857 12 8.67857C12.1488 8.67857 12.2753 8.62649 12.3795 8.52232ZM21.7768 11.6585C21.9256 11.9189 22 12.1756 22 12.4286C22 12.6815 21.9256 12.9382 21.7768 13.1987C20.7351 14.91 19.3326 16.2827 17.5692 17.317C15.8132 18.3438 13.9568 18.8571 12 18.8571C10.0432 18.8571 8.18304 18.34 6.41964 17.3058C4.66369 16.2716 3.26488 14.9025 2.22321 13.1987C2.0744 12.9382 2 12.6815 2 12.4286C2 12.1756 2.0744 11.9189 2.22321 11.6585C3.26488 9.95461 4.66369 8.58557 6.41964 7.55134C8.18304 6.51711 10.0432 6 12 6C13.9568 6 15.8132 6.51711 17.5692 7.55134C19.3326 8.58557 20.7351 9.95461 21.7768 11.6585Z" fill="#000"/>
</svg>
