<?xml version="1.0" encoding="utf-8"?><svg xmlns="http://www.w3.org/2000/svg" xmlns:xlink="http://www.w3.org/1999/xlink"><symbol  viewBox="0 0 24 24" id="icon-example-1" xmlns="http://www.w3.org/2000/svg"><path fill-rule="evenodd" clip-rule="evenodd" d="M8.293 20.707a1 1 0 0 1 0-1.414L15.586 12 8.293 4.707a1 1 0 0 1 1.414-1.414l8 8a1 1 0 0 1 0 1.414l-8 8a1 1 0 0 1-1.414 0Z" /></symbol><symbol fill="none" viewBox="0 0 24 24" id="icon-example-2" xmlns="http://www.w3.org/2000/svg"><path d="M20.571 12.429c-1.13-1.756-2.548-3.07-4.252-3.94.454.774.681 1.61.681 2.511 0 1.377-.491 2.556-1.473 3.538C14.552 15.513 13.377 16 12 16c-1.377 0-2.556-.487-3.538-1.462C7.487 13.556 7 12.376 7 11c0-.9.227-1.737.68-2.511-1.703.87-3.12 2.184-4.251 3.94.99 1.525 2.228 2.741 3.716 3.65A9.246 9.246 0 0 0 12 17.428c1.741 0 3.356-.45 4.844-1.35 1.495-.909 2.738-2.125 3.727-3.65ZM12.38 8.522a.517.517 0 0 0 .157-.38.517.517 0 0 0-.156-.379.517.517 0 0 0-.38-.156c-.93 0-1.73.335-2.4 1.005A3.256 3.256 0 0 0 8.607 11c0 .149.052.275.156.38.105.104.231.156.38.156a.517.517 0 0 0 .38-.156.517.517 0 0 0 .156-.38c0-.64.227-1.187.68-1.64.454-.454 1.001-.681 1.641-.681a.517.517 0 0 0 .38-.157Zm9.398 3.136c.149.26.223.518.223.77 0 .253-.074.51-.223.77-1.042 1.712-2.444 3.085-4.208 4.119-1.756 1.027-3.612 1.54-5.569 1.54-1.957 0-3.817-.517-5.58-1.551-1.756-1.034-3.155-2.404-4.197-4.107a1.545 1.545 0 0 1-.223-.77c0-.253.074-.51.223-.77C3.265 9.954 4.663 8.585 6.42 7.55 8.183 6.517 10.043 6 12 6c1.957 0 3.813.517 5.57 1.551 1.763 1.035 3.165 2.404 4.207 4.107Z" fill="#000"/></symbol></svg>